<svg xmlns="http://www.w3.org/2000/svg" width="1900" height="1900" viewBox="0 0 1900 1900"><rect width="100%" height="100%" fill="#DDDDDD"/><path fill="#999999" d="M480.975 969.69q1.97 0 3.49 1.52l9.49 10.29q-7.88 9.76-19.38 14.95-11.5 5.19-27.61 5.19-14.41 0-25.91-4.92t-19.64-13.69q-8.15-8.77-12.49-20.95-4.34-12.17-4.34-26.58 0-14.59 4.65-26.71 4.66-12.13 13.12-20.9 8.45-8.77 20.18-13.65 11.72-4.88 25.95-4.88 14.14 0 25.11 4.66 10.96 4.65 18.66 12.17l-8.06 11.18q-.71 1.08-1.83 1.88-1.12.81-3.09.81-1.34 0-2.77-.76t-3.14-1.88q-1.7-1.12-3.93-2.46-2.24-1.34-5.19-2.46-2.96-1.12-6.85-1.88-3.89-.76-9-.76-8.68 0-15.88 3.08-7.21 3.09-12.4 8.95-5.19 5.87-8.05 14.32-2.87 8.46-2.87 19.29 0 10.92 3.09 19.42 3.09 8.51 8.37 14.32 5.28 5.82 12.44 8.91 7.16 3.09 15.39 3.09 4.93 0 8.91-.54 3.98-.54 7.34-1.7 3.35-1.17 6.35-3 3-1.83 5.95-4.52.9-.81 1.88-1.3.99-.49 2.06-.49Zm66.68-62.74q10.2 0 18.57 3.31 8.37 3.31 14.32 9.4 5.95 6.09 9.17 14.86 3.23 8.77 3.23 19.6 0 10.92-3.23 19.69-3.22 8.77-9.17 14.94-5.95 6.18-14.32 9.49-8.37 3.31-18.57 3.31-10.29 0-18.71-3.31-8.41-3.31-14.36-9.49-5.95-6.17-9.22-14.94-3.27-8.77-3.27-19.69 0-10.83 3.27-19.6 3.27-8.77 9.22-14.86 5.95-6.09 14.36-9.4 8.42-3.31 18.71-3.31Zm0 77.6q11.46 0 16.96-7.7t5.5-22.55q0-14.86-5.5-22.65-5.5-7.78-16.96-7.78-11.63 0-17.23 7.83-5.59 7.83-5.59 22.6 0 14.76 5.59 22.51 5.6 7.74 17.23 7.74Zm84.31 15.66h-22.11v-91.83h13.52q4.29 0 5.64 4.03l1.43 6.8q2.41-2.68 5.05-4.92 2.64-2.24 5.64-3.85 3-1.61 6.45-2.55 3.44-.94 7.56-.94 8.68 0 14.27 4.7 5.6 4.7 8.37 12.48 2.15-4.56 5.37-7.83 3.23-3.26 7.07-5.32 3.85-2.06 8.19-3.04 4.34-.99 8.73-.99 7.61 0 13.51 2.33 5.91 2.33 9.94 6.8 4.03 4.47 6.13 10.92 2.1 6.44 2.1 14.77v58.44h-22.1v-58.44q0-8.77-3.85-13.2-3.85-4.44-11.28-4.44-3.4 0-6.31 1.17-2.91 1.16-5.1 3.35-2.19 2.2-3.45 5.51-1.25 3.31-1.25 7.61v58.44h-22.2v-58.44q0-9.22-3.71-13.43-3.71-4.21-10.87-4.21-4.84 0-9 2.38-4.16 2.37-7.74 6.49v67.21Zm128.52-91.83h22.2v91.83h-22.2v-91.83Zm25.24-26.76q0 2.87-1.16 5.37-1.17 2.51-3.09 4.39-1.93 1.88-4.52 3-2.6 1.12-5.55 1.12-2.86 0-5.41-1.12-2.56-1.12-4.43-3-1.88-1.88-3-4.39-1.12-2.5-1.12-5.37 0-2.95 1.12-5.55 1.12-2.59 3-4.47 1.87-1.88 4.43-3 2.55-1.12 5.41-1.12 2.95 0 5.55 1.12 2.59 1.12 4.52 3 1.92 1.88 3.09 4.47 1.16 2.6 1.16 5.55Zm38.66 30.79 1.53 7.25q2.77-2.77 5.86-5.15 3.09-2.37 6.53-4.02 3.45-1.66 7.38-2.6 3.94-.94 8.6-.94 7.52 0 13.33 2.55 5.82 2.55 9.71 7.16 3.9 4.61 5.91 11.01 2.01 6.4 2.01 14.1v58.44h-22.1v-58.44q0-8.42-3.85-13.03-3.85-4.61-11.73-4.61-5.72 0-10.74 2.6-5.01 2.6-9.48 7.07v66.41h-22.11v-91.83h13.52q4.29 0 5.63 4.03Zm115.37 39.65q4.12 0 7.16-1.12t5.06-3.09q2.01-1.97 3.04-4.74 1.03-2.78 1.03-6.09 0-6.8-4.07-10.78-4.08-3.98-12.22-3.98-8.15 0-12.22 3.98t-4.07 10.78q0 3.23 1.03 6t3.04 4.79q2.02 2.01 5.1 3.13 3.09 1.12 7.12 1.12Zm24.97 52.27q0-2.69-1.61-4.39-1.61-1.7-4.39-2.64-2.77-.94-6.49-1.39-3.71-.44-7.87-.67-4.16-.22-8.59-.4-4.43-.18-8.64-.72-3.67 2.06-5.95 4.84-2.28 2.77-2.28 6.44 0 2.42 1.2 4.52 1.21 2.1 3.85 3.63 2.64 1.52 6.85 2.37 4.21.85 10.29.85 6.18 0 10.65-.94 4.48-.94 7.39-2.6 2.9-1.65 4.25-3.94 1.34-2.28 1.34-4.96Zm-4.39-92.81h26.41v8.23q0 3.94-4.75 4.83l-8.23 1.52q1.88 4.75 1.88 10.39 0 6.8-2.73 12.3-2.73 5.51-7.56 9.36-4.84 3.84-11.41 5.95-6.58 2.1-14.19 2.1-2.69 0-5.19-.27-2.51-.27-4.92-.71-4.3 2.59-4.3 5.81 0 2.78 2.55 4.08 2.55 1.29 6.76 1.83 4.2.54 9.57.67 5.37.14 11.01.58 5.64.45 11.01 1.57t9.58 3.53q4.2 2.42 6.76 6.58 2.55 4.16 2.55 10.7 0 6.08-3 11.81t-8.68 10.21q-5.69 4.47-13.97 7.2-8.27 2.73-18.84 2.73-10.38 0-18.07-2.01-7.7-2.02-12.8-5.37-5.1-3.36-7.61-7.75-2.51-4.38-2.51-9.13 0-6.44 3.9-10.78 3.89-4.34 10.69-6.94-3.67-1.88-5.82-5.01-2.14-3.13-2.14-8.23 0-2.06.76-4.25.76-2.2 2.23-4.34 1.48-2.15 3.72-4.08 2.24-1.92 5.28-3.44-6.98-3.76-10.96-10.03-3.99-6.26-3.99-14.67 0-6.81 2.73-12.31 2.73-5.5 7.61-9.4 4.88-3.89 11.55-5.95 6.66-2.06 14.54-2.06 5.91 0 11.1 1.21 5.19 1.21 9.48 3.54Zm162.27-28.55-6 11.36q-1.07 1.88-2.28 2.73-1.21.85-3 .85-1.88 0-4.07-1.39-2.19-1.38-5.24-3.08-3.04-1.7-7.11-3.09t-9.62-1.39q-5.02 0-8.77 1.21-3.76 1.21-6.31 3.36-2.56 2.14-3.81 5.14-1.25 3-1.25 6.58 0 4.57 2.55 7.61t6.76 5.19q4.2 2.15 9.57 3.85 5.37 1.7 11.01 3.62 5.64 1.93 11.01 4.48 5.37 2.55 9.58 6.44 4.2 3.89 6.75 9.53 2.55 5.64 2.55 13.7 0 8.77-2.99 16.42-3 7.65-8.77 13.34-5.78 5.68-14.1 8.95-8.32 3.26-19.06 3.26-6.18 0-12.18-1.21-5.99-1.2-11.5-3.44-5.5-2.24-10.33-5.37-4.84-3.13-8.6-6.98l7.07-11.55q.9-1.25 2.33-2.1 1.43-.85 3.04-.85 2.24 0 4.84 1.83 2.59 1.84 6.17 4.08 3.58 2.23 8.37 4.07 4.79 1.83 11.5 1.83 10.29 0 15.93-4.88 5.64-4.87 5.64-14 0-5.1-2.55-8.33-2.55-3.22-6.76-5.41-4.2-2.19-9.57-3.71-5.37-1.53-10.92-3.32-5.55-1.79-10.92-4.29-5.37-2.51-9.58-6.54-4.2-4.02-6.75-10.06-2.56-6.05-2.56-14.91 0-7.07 2.82-13.78 2.82-6.71 8.19-11.9 5.37-5.19 13.25-8.33 7.88-3.13 18.08-3.13 11.45 0 21.12 3.58 9.67 3.58 16.47 10.03Zm60.41 23.98q10.2 0 18.57 3.31 8.37 3.31 14.32 9.4 5.95 6.09 9.18 14.86 3.22 8.77 3.22 19.6 0 10.92-3.22 19.69-3.23 8.77-9.18 14.94-5.95 6.18-14.32 9.49-8.37 3.31-18.57 3.31-10.29 0-18.71-3.31-8.41-3.31-14.36-9.49-5.95-6.17-9.22-14.94-3.27-8.77-3.27-19.69 0-10.83 3.27-19.6 3.27-8.77 9.22-14.86 5.95-6.09 14.36-9.4 8.42-3.31 18.71-3.31Zm0 77.6q11.46 0 16.96-7.7t5.5-22.55q0-14.86-5.5-22.65-5.5-7.78-16.96-7.78-11.63 0-17.23 7.83-5.59 7.83-5.59 22.6 0 14.76 5.59 22.51 5.6 7.74 17.23 7.74Zm102.84-77.6q10.2 0 18.57 3.31 8.37 3.31 14.32 9.4 5.95 6.09 9.17 14.86 3.22 8.77 3.22 19.6 0 10.92-3.22 19.69-3.22 8.77-9.17 14.94-5.95 6.18-14.32 9.49-8.37 3.31-18.57 3.31-10.3 0-18.71-3.31t-14.36-9.49q-5.96-6.17-9.22-14.94-3.27-8.77-3.27-19.69 0-10.83 3.27-19.6 3.26-8.77 9.22-14.86 5.95-6.09 14.36-9.4 8.41-3.31 18.71-3.31Zm0 77.6q11.45 0 16.96-7.7 5.5-7.7 5.5-22.55 0-14.86-5.5-22.65-5.51-7.78-16.96-7.78-11.64 0-17.23 7.83-5.6 7.83-5.6 22.6 0 14.76 5.6 22.51 5.59 7.74 17.23 7.74Zm81.35-72.14 1.52 7.25q2.78-2.77 5.87-5.15 3.08-2.37 6.53-4.02 3.44-1.66 7.38-2.6 3.94-.94 8.59-.94 7.52 0 13.34 2.55t9.71 7.16q3.89 4.61 5.91 11.01 2.01 6.4 2.01 14.1v58.44h-22.1v-58.44q0-8.42-3.85-13.03-3.85-4.61-11.73-4.61-5.73 0-10.74 2.6t-9.48 7.07v66.41h-22.11v-91.83h13.51q4.3 0 5.64 4.03Zm78.58 75.63q0-2.78 1.03-5.28 1.03-2.51 2.82-4.3 1.79-1.79 4.3-2.86 2.5-1.08 5.37-1.08 2.86 0 5.32 1.08 2.46 1.07 4.3 2.86 1.83 1.79 2.91 4.3 1.07 2.5 1.07 5.28 0 2.86-1.07 5.32-1.08 2.46-2.91 4.25-1.84 1.79-4.3 2.82-2.46 1.03-5.32 1.03-2.87 0-5.37-1.03-2.51-1.03-4.3-2.82-1.79-1.79-2.82-4.25-1.03-2.46-1.03-5.32Zm42.52 0q0-2.78 1.02-5.28 1.03-2.51 2.82-4.3 1.79-1.79 4.3-2.86 2.51-1.08 5.37-1.08 2.86 0 5.32 1.08 2.47 1.07 4.3 2.86 1.84 1.79 2.91 4.3 1.07 2.5 1.07 5.28 0 2.86-1.07 5.32-1.07 2.46-2.91 4.25-1.83 1.79-4.3 2.82-2.46 1.03-5.32 1.03-2.86 0-5.37-1.03-2.51-1.03-4.3-2.82-1.79-1.79-2.82-4.25-1.02-2.46-1.02-5.32Z"/></svg>